<svg version="1.2" baseProfile="tiny" xmlns="http://www.w3.org/2000/svg" viewBox="0 0 240 240"><path d="M2.008 53.883c.942-9.61 0-21.389.394-32.075.126-3.417.293-6.902 1.51-10.098.211-.554.468-1.117.926-1.493.626-.515 1.497-.582 2.307-.626 2.02-.11 4.273-.141 5.776 1.212 1.166 1.051 1.577 2.688 1.844 4.235.8 4.628.834 7.21.102 11.849-.078.494-.146 1.058.177 1.44.356.421 1 .402 1.549.347 4.117-.411 7.146.266 11.263-.144-.775-4.045.626-9.177-.149-13.222-.101-.526-.2-1.081-.029-1.588.179-.529.624-.921 1.083-1.238 1.724-1.191 3.842-1.663 5.922-1.915.981-.119 2.035-.181 2.9.299.712.396 1.194 1.111 1.512 1.861.69 1.624.718 3.441.736 5.205.071 7.115-.945 12.054-.874 19.169.038 3.802.076 7.607-.117 11.404-.116 2.283-.324 4.596-1.119 6.74-.249.671-.58 1.354-1.169 1.761-.527.365-1.19.46-1.827.533-1.799.205-3.61.308-5.42.309-.438 0-.901-.012-1.274-.242-.5-.307-.709-.917-.866-1.482-.809-2.916-1.176-8.131-1.083-11.156.04-1.292.084-2.785-.888-3.637-.674-.59-1.639-.676-2.534-.717a73.194 73.194 0 0 0-7.495.039c-.213 3.199-.427 8.574-.64 11.774-.08 1.202-.181 2.466-.852 3.465-1.078 1.604-3.234 2.007-5.161 2.159-2.307.181-6.729-1.864-6.504-4.168zm1.186 18.088c-.408 4.123-.009 11.874 1.375 19.584.952 5.304 3.855 10.608 7.74 12.592 2.122 1.084 5.708 2.049 8.046 1.591a66.661 66.661 0 0 0 4.948-1.168c1.13-.313 2.259-.658 3.298-1.2 1.338-.698 2.487-1.701 3.623-2.695 2.356-2.061 3.708-5.327 4.843-8.244.678-1.742.842-3.637.913-5.505.133-3.468 1.058-10.211.602-13.652-.155-1.173-.353-2.365-.906-3.41-.956-1.804-2.561-2.615-4.59-2.836-2.359-.257-4.546.544-5.773 1.704-.67.633-.815 1.63-.901 2.548a61.29 61.29 0 0 0-.135 9.77c.153 2.322.409 7.231-.69 9.282-.72 1.344-2.748 4.18-6.488 3.923-1.828-.126-3.653-2.2-3.866-4.777-.149-1.803-.292-3.601-.226-5.409l.237-6.502c.062-1.709.117-3.468-.467-5.075-.839-2.306-2.928-4-5.233-4.842-2.306-.844-5.933.105-6.35 4.321zm18.61 63.977c-1.77 0-3.393-.851-4.109-2.47-.73-1.65-.835-3.748.338-5.119.959-1.122 2.525-1.5 3.995-1.63 2.055-.182 6.317 1.086 8.31 1.616 1.541.41 3.2-.064 4.669-.686 1.626-.688 2.336-2.761 1.908-4.474-.429-1.713-1.743-3.076-3.2-4.073-2.059-1.409-4.455-2.239-6.859-2.905-1.798-.498-3.632-.915-5.496-.989-5.95-.234-11.787 3.303-14.7 8.497-2.491 4.441-2.365 10.113-.329 14.788 1.23 2.824 1.929 3.795.228 5.979-1.246 1.6-2.183 4.996-2.545 6.992-.385 2.124-.625 4.332-.098 6.425.528 2.093 3.046 6.244 5.101 6.903.796.256 5.28 3.409 6.667 3.875 4.311 1.45 9.134 1.073 13.228-.423s7.688-2.608 7.827-5.384c.139-2.776-.694-5.687-1.864-6.935-1.17-1.248-3.037-1.748-4.707-1.38-1.47.324-3.977 2.336-6.413 2.624-1.957.232-5.192-.555-6.075-2.317-1.417-2.826.123-7.089 1.701-8.271 2.705-2.027 10.618 2.895 11.602-3.55.413-2.707-.154-6.094-4.451-6.902-1.749-.325-3.403-.191-4.728-.191zM5.307 224.171c-.269 1.937.588 3.99 2.154 5.161 1.613 1.205 4.827 2.521 6.839 2.582 1.891.057 5.649-.02 7.54-.071 4.624-.123 10.293-4.019 12.211-8.309.779-1.743 1.592-3.439 1.797-5.338.267-2.47.43-4.986-.054-7.422-1.133-5.698-5.794-10.014-13.719-11.197-1.892-.282-3.408-2.293-3.631-4.193-.162-1.387.732-2.828 2.047-3.298 1.733-.619 5.782-.835 7.537-.283 2.965.933 5.371-.699 5.722-2.59.514-2.77 1.557-5.708-.623-7.493-1.949-1.597-6.511-2.474-9.031-2.503-3.847-.044-7.304.502-10.732 2.249-1.454.741-2.744 1.768-3.968 2.847-.877.773-1.738 1.59-2.345 2.589-.89 1.464-1.173 3.217-1.254 4.928-.206 4.368.818 7.7 2.925 11.532.843 1.534 1.878 2.998 3.27 4.058 3.066 2.334 7.3 2.352 10.768 4.03 1.224.592 2.614 2.909 1.355 5.157-1.26 2.247-5.747 2.903-7.613 2.623-1.263-.19-3.606-.708-4.876-.57-1.943.211-6.049 3.574-6.319 5.511zM58.055 83.989c-6.714 22.406-5.754 35.088-5.501 58.929.113 10.648 3.761 37.962 9.204 50.596 5.993 13.911 11.631 23.734 20.235 30.465 12.02 9.404 25.298 12.084 40.534 11.192 15.236-.892 30.053-5.372 44.255-10.961 7.843-3.086 32.609-17.416 40.253-32.878 3.568-7.218 7.75-23.601 8.871-25.443 2.29-3.765 8.838-7.459 11.596-10.896 2.706-3.373 6.629-8.943 8.392-16.913 2.425-10.959 3.068-25.127.25-32.828-2.784-7.61-9.287-4.266-13.347-8.737-4.294-4.729-2.25-14.577-2.244-20.965.003-2.758-.639-11.203-1.038-13.932-.47-3.211-1.486-6.313-2.498-9.396-1.4-4.267-2.827-8.589-5.281-12.35-1.389-2.13-4.22-6.081-6.002-7.895-2.127-2.165-5.937-4.798-10.133-3.488-2.266.708-10.83 7.026-14.063 9.311-4.22 2.983-12.09 8.462-16.12 11.697-2.746 2.204-7.78 7.103-8.864 10.452-.96 2.966.114 5.131 3.126 6.414 4.335 1.847 15.13 6.694 23.387 15.787s6.939 19.914 13.353 24.604c1.994 1.458 4.865.835 7.325 1.056 4.906.44 18.497-1.357 22.577 1.402 5.201 3.516 3.41 12.083 3.16 18.355-.096 2.405-.305 4.822-.936 7.144-1.265 4.653-3.286 8.721-6.201 12.563-1.712 2.256-4.254 4.608-6.626 6.156-4.7 3.066-12.747 3.134-18.077-.205-3.632-2.275-6.358 1.802-6.151 4.308.19 2.297 2.374 3.938 4.565 4.653 2.191.715 8.169 3.068 8.19 5.426.021 2.358-2.728 9.771-4.882 14.598-5.463 12.239-13.941 17.915-25.815 25.169-11.874 7.254-25.371 11.534-39.05 14.085-14.463 2.698-30.256 3.317-43.021-3.997-9.276-5.315-17.028-18.194-20.803-28.197-3.776-10.002-7.261-30.648-7.982-41.315-1.252-18.534-.224-29.13 2.383-47.523C66.705 88.937 68.4 81.03 71.673 72.54c1.964-5.094 3.995-10.93 8.324-16.387C84.142 63.4 94.909 70.62 103.07 72.379c8.161 1.759 24.825-1.711 32.092-5.82 5.798-3.279 10.307-8.369 15.221-12.865 9.946-9.098 15.633-13.102 25.728-20.999 2.971-2.324 8.301-6.06 10.126-9.362 1.928-3.488-.62-6.416-3.523-8.825-7.694-6.385-34.38-12.69-55.823-8.473C107.949 9.76 93.48 17.293 80.364 33.999c-14.443 18.399-15.595 27.584-22.309 49.99zm35.539 94.876c-1.124 3.283-.153 4.402 1.035 5.879.699.869 1.581 1.59 2.55 2.185 4.403 2.704 12.102 3.273 17.343 3.367 5.241.094 10.459-1.031 15.279-2.954 1.171-.467 2.389-1.038 3.031-2.074.618-.996 1.1-3.835.75-4.944-.744-2.362-1.319-3.769-3.851-4.363-2.525-.593-5.154.077-7.706.529-5.146.911-10.539 2.11-15.7 1.233-1.958-.333-5.481-1.09-7.354-1.691-2.487-.799-4.793 1.127-5.377 2.833zm-1.95-39.374c-4.329.005-8.898 6.096-11.862 9.252-1.835 1.953-1.498 5.585.848 7.789 3.916 3.678 7.931 1.662 10.942-2.402 1.357-1.831 2.241-3.195 3.594-5.029 1.799-2.439 2.567-6.346.748-7.923-1.474-1.278-2.319-1.69-4.27-1.687zm47.974 17.429c2.304-.072 5.782-2.01 5.971-6.161.189-4.151-4.446-6.483-6.629-8.293-1.472-1.221-5.317-3.599-7.228-3.502-2.635.134-4.456 3.048-4.26 5.679s1.856 4.919 3.671 6.834c2.343 2.472 5.072 5.55 8.475 5.443zm-2.583-66.017c-2.625 1.951-5.883 6.578-6.964 9.665-.359 1.026-.665 2.099-.6 3.184.066 1.085 1.289 3.018 2.222 3.577.64.384 1.416.474 2.162.456a8.466 8.466 0 0 0 4.061-1.156c1.087-.638 2.015-1.509 2.933-2.373l4.723-4.444c.931-.876 1.901-1.814 2.255-3.043.356-1.238.02-2.579-.543-3.738-1.701-3.497-7.128-4.448-10.249-2.128zm-40.405 9.722l-2.556-3.961c-1.558-2.415-3.317-4.991-6.04-5.909-2.07-.698-4.489-.242-6.164 1.161-1.675 1.403-2.547 3.705-2.222 5.866.25 1.662 1.146 3.166 2.234 4.446 3.661 4.308 12.186 9.814 15.305 5.099 1.796-2.716.964-4.344-.557-6.702zm-1.927 20.047a91.791 91.791 0 0 1-10.24-1.634c-2.722-.594-5.953-1.185-7.975.733-1.432 1.357-1.564 3.534-1.513 5.506.063 2.44.787 4.701 2.802 5.257 1.475.407 3.429.005 5.139-.169 3.563-.362 7.161.394 10.701.392 3.325-.001 6.595-.799 9.855.03 1.419.361 3.018 1.967 3.688 3.269.428.832.392 1.817.346 2.751l-.327 6.635c-.112 2.271-.224 4.546-.554 6.796-.536 3.658-.872 9.463-.756 13.159.043 1.36 1.017 2.083 2.245 2.652 1.207.559 5.579.425 7.214-.539 1.319-.778 1.212-2.932 1.245-4.188.058-2.235-.449-6.147-.281-9.159.283-5.067.313-9.509 1.393-13.452.41-1.497.746-4.045 1.648-5.307 1.249-1.749 3.275-2.04 5.32-2.707 1.932-.63 14.717-1.059 17.576-.774 2.858.285 5.41.34 8.015-.87 1.419-.66 1.924-2.846 1.843-5.025-.099-2.665-.652-3.045-2.801-4.625-2.244-1.65-5.333-1.184-8.097-.837-4.568.572-12.241 2.62-16.817 2.111-1.442-.16-1.807-.413-3.148-.967-.828-.342-1.636-.842-2.084-1.618-.451-.781-.478-2.815-.493-3.717-.053-3.26-.285-12.235.119-15.471.271-2.167.746-4.316.799-6.499.052-2.184-.364-4.466-1.693-6.199-.46-.6-1.049-1.138-1.776-1.346-.522-.149-1.077-.117-1.619-.08-1.8.124-3.759.367-5.021 1.656-1.015 1.037-1.361 2.544-1.581 3.979-.658 4.301-.532 9.765-.438 14.115l.187 8.648c.046 2.115-.559 5.007-2.368 6.364-2.137 1.606-7.894 1.402-10.553 1.13zm104.949 16.544c-1.954 1.65-1.777 5.266.105 6.172 1.828.88 4.876.997 6.126 1.04 1.69.058 5.695.485 9.397-2.877 1.832-1.664 3.52-4.991 4.5-7.264.744-1.726 1.279-9.931.982-11.787-.66-4.12-2.447-5.317-6.519-5.305-3.601.011-6.568-.75-9.617 1.166-.884.555-2.342 1.254-2.455 3.607s.542 2.705 1.272 3.156 1.575.679 2.353 1.044c1.99.935 3.757 2.511 3.417 5.185s-3.437 4.775-5.633 4.669c-1.731-.081-3.017.425-3.928 1.194z"/></svg>