<svg viewBox="0 0 100 100" xmlns="http://www.w3.org/2000/svg">
  <style>
    path {fill: #1a1a1a;}
    @media (prefers-color-scheme: dark) {
      path {fill: #e6e6e6;}
    }
  </style>
  <title>hues logo</title>
  <path
    d="M100,0 L100,100 L0,100 L0,0 L100,0 Z M24.1666667,25 L17.5,25 L17.5,75 L24.1666667,75 L24.1666667,55.335 C24.1663362,48.7156316 29.1666667,48.9668709 30.9104188,49.0059236 C31.6159189,49.0217238 32.3220595,49.2607718 32.9156502,49.7356444 C33.7063676,50.3682183 34.1666667,51.325928 34.1666667,52.3385404 L34.1666667,52.3385404 L34.1666667,75 L40.8333333,75 L40.8333333,52.3385404 L40.8290356,52.0450975 C40.7432117,49.116355 39.3759151,46.3663573 37.0802838,44.5298523 C33.2086325,41.4325312 27.740947,41.6793623 24.1669793,44.8825953 L24.1669793,44.8825953 L24.1666667,25 Z M62.7567448,24.999334 L55.5784115,24.999334 L55.4335866,25.3678537 C52.3917201,33.2215585 50.8300781,41.5729669 50.8300781,49.9995931 C50.8300781,58.4262036 52.3916245,66.7776055 55.4333144,74.6313624 L55.4333144,74.6313624 L55.5775781,74.999334 L62.7567448,74.999334 L61.9031956,72.8666304 L61.6344514,72.1834223 C58.9003235,65.1090684 57.4967448,57.588131 57.4967448,49.9995931 C57.4967448,42.1662979 58.9924197,34.4050431 61.9034284,27.1327297 L61.9034284,27.1327297 L62.7567448,24.999334 Z M78.6194427,24.6560007 L78.7542448,24.999334 L71.5759115,24.999334 L72.430154,27.1333279 L72.6988983,27.816536 C75.4330261,34.8908899 76.8366049,42.4118273 76.8366049,50.0003652 C76.8366049,57.8336604 75.3409299,65.5949152 72.4299212,72.8672286 L72.4299212,72.8672286 L71.5759115,74.999334 L78.7542448,74.999334 L78.899763,74.6321046 C81.9416295,66.7783998 83.5032715,58.4269914 83.5032715,50.0003652 C83.5032715,41.3184029 81.845652,32.7162763 78.6194427,24.6560007 L78.6194427,24.6560007 Z"/>
</svg>
