<svg xmlns="http://www.w3.org/2000/svg"><symbol id="symbol-hues-logo" viewBox="0 0 240 240"><path d="M44.011 221.954c-9.315-.913-16.855 0-27.213-.382-3.312-.122-6.69-.284-9.788-1.463-.537-.204-1.083-.454-1.448-.897-.5-.607-.564-1.451-.607-2.236-.106-1.957-.137-4.142 1.175-5.598 1.019-1.13 2.583-1.788 4.105-1.788 2.791 0 3.518.097 5.133.097s4.066.35 4.839-.367c.392-.364.39-.969.337-1.501-.162-1.628-.149-6.827-.104-8.985.048-2.267.131-7.545.084-9.132-.018-.605-.289-1.699-1.521-1.699-3.668 0-6.723-.188-8.396-.181-1.673.007-3.365-.547-3.947-1.69-.582-1.143-.516-2.913-.76-4.93-.115-.951-.176-1.973.29-2.811.383-.69 1.077-1.157 1.804-1.466 1.574-.669 3.335-.696 5.045-.714 6.896-.069 22.076.773 25.757.961 2.213.113 4.455.314 6.533 1.084.651.241 1.312.562 1.707 1.133.354.511.446 1.154.516 1.771.198 1.744.298 3.499.299 5.254 0 .425-.012.873-.234 1.235-.298.484-.888.688-1.436.84-2.827.784-6.912 1.14-9.845 1.05-1.253-.038-2.699-.081-3.525.861-.572.653-.655 4.616-.695 5.483-.053 1.147-.078 2.975-.075 4.839.003 2.068.041 7.207.113 8.48 3.101.207 7.342.413 10.443.62 1.165.078 2.39.175 3.359.826 1.555 1.045 1.945 3.135 2.093 5.002.177 2.237-1.805 6.523-4.038 6.304zM9.035 167.22c2.002.19 4.815.207 8.061.033 3.803-.203 12.417-.667 16.802-1.42 5.591-.961 11.183-3.89 13.275-7.809.525-.984 1.024-2.28 1.363-3.622-.514 2.038 1.424-5.817.314-11.56-.552-2.855.183-7.167-2.497-11.347-2.68-4.18-6.274-7.018-11.532-8.542a23.984 23.984 0 0 0-5.803-.921c-1.828-.067-8.736-.334-11.424-.526-2.688-.193-5.372-.311-7.185-.081-1.236.157-2.494.356-3.595.915-1.902.964-2.757 2.584-2.99 4.632-.271 2.38.574 4.587 1.797 5.825.668.676 1.719.823 2.686.909 3.422.307 11.086.353 14.516.136 2.448-.155 7.678.083 9.785 1.294 1.48.85 2.994 2.018 3.626 3.467.558 1.279 1.356 4.333 1.221 6.221-.066.922-.511 4.735-1.033 5.763-.492.967-1.705 3.284-4.022 4.116-1.794.644-4.488.668-6.394.601-2.285-.08-8.787-.16-11.072-.24-1.802-.063-4.602.278-6.296.868-2.431.846-3.398 2.367-4.159 4.883-.721 2.378.112 5.984 4.556 6.405zm12.633-70.79c-.629 5.449-4.858 5.121-6.655.564-.954-2.42-1.27-6.381-.898-9.678.233-2.068 1.224-7.359 1.8-9.359.445-1.546.848-3.213.251-4.707-.661-1.654-2.577-2.41-4.313-2.012-1.736.397-3.138 1.695-4.174 3.145-1.463 2.048-2.349 5.458-3.07 7.87-.539 1.804-.998 7.681-1.11 9.56-.358 5.998 2.021 14.964 7.202 18.009 4.43 2.603 7.127 2.552 11.885.593 2.874-1.183 3.868-1.869 6.037-.108 1.589 1.29 3.793 2.997 9.466 1.869 2.945-.586 5.086-2.531 7.261-5.506 2.042-2.794 2.533-4.45 3.016-6.156.616-2.178 1.037-6.563 1.132-10.024.104-3.789-.674-8.228-1.419-10.402-1.426-4.16-2.474-7.809-5.272-8.006-2.797-.197-3.652.546-5.011 1.61s-2.028 2.896-1.807 4.607c.195 1.506 1.769 3.844 2.725 6.126 1.113 2.657 1.065 8.591.348 12.591-.593 3.309-5.035 5.042-6.257 1.847-.93-2.431-1.561-5.822-1.42-9.028.061-1.386.008-3.222-.186-4.549-.286-1.958-1.221-3.517-4.027-3.691-2.758-.171-4.556.053-5.641 3.968-.215.776-.209 1.765-.021 4.67.189 2.905.316 4.835.158 6.197zM39.19 63.987c1.934.452 4.849.386 6.134-1.599 1.323-2.043 2.865-6.171 3.062-8.795.184-2.466.663-7.465.612-9.937-.124-6.045-3.121-13.251-7.375-15.965-3.77-2.405-7.049-3.52-10.857-2.279-5.684 1.854-9.753 10.51-10.289 20.963-.408 7.951-4.444 6.807-5.54 2.07-.534-2.305-.843-11.595-.285-13.89.941-3.876-.705-7.022-2.613-7.48-2.795-.672-3.741-2.036-5.542.814C4.885 30.438 4 37.411 3.971 40.705c-.045 5.03.704 9.427 2.269 14.03 1.722 5.062 8.572 8.715 10.298 8.821 4.408.269 3.892.004 7.759-2.751 1.547-1.102 2.016-2.455 3.085-4.276 1.565-2.664 2.184-10.01 2.776-13.309 1.388-7.724 6.709-10.882 7.121.57.137 3.799-1.41 10.988-1.422 12.656-.03 4.756 1.4 7.089 3.333 7.541zm23.219 21.381c-6.457 21.548-5.534 33.745-5.29 56.672.109 10.24 3.617 36.509 8.851 48.658 5.764 13.378 11.185 22.825 19.46 29.299 11.56 9.044 24.33 11.621 38.982 10.763s28.903-5.167 42.561-10.541c7.543-2.968 31.361-16.749 38.712-31.62 3.432-6.942 7.453-22.697 8.531-24.469 2.202-3.621 8.5-7.173 11.152-10.479 2.603-3.244 6.375-8.6 8.071-16.266 2.332-10.54 2.95-24.165.24-31.571-2.678-7.318-8.931-4.102-12.836-8.402-4.129-4.548-2.163-14.019-2.158-20.162.002-2.653-.614-10.774-.998-13.399-.452-3.088-1.429-6.071-2.403-9.036-1.347-4.103-2.719-8.26-5.078-11.877-1.336-2.048-4.058-5.848-5.773-7.592-2.046-2.082-5.709-4.614-9.745-3.354-2.18.681-10.415 6.757-13.524 8.955-4.058 2.869-11.627 8.138-15.503 11.249-2.641 2.119-7.482 6.831-8.525 10.052-.923 2.853.11 4.934 3.006 6.168 4.169 1.776 14.551 6.438 22.492 15.183 7.941 8.745 6.673 19.151 12.842 23.661 1.917 1.402 4.679.803 7.044 1.016 4.718.423 17.789-1.305 21.713 1.348 5.002 3.381 3.279 11.62 3.039 17.653-.092 2.313-.293 4.637-.901 6.871-1.216 4.475-3.16 8.387-5.963 12.082-1.647 2.17-4.091 4.432-6.372 5.92-4.52 2.949-12.259 3.014-17.385-.197-3.493-2.188-6.115 1.733-5.915 4.143.183 2.209 2.283 3.787 4.39 4.475 2.107.687 7.856 2.95 7.877 5.218.021 2.268-2.623 9.397-4.695 14.039-5.254 11.771-13.407 17.229-24.826 24.205-11.42 6.976-24.399 11.092-37.554 13.546-13.909 2.595-29.097 3.19-41.374-3.844-8.921-5.112-16.376-17.498-20.007-27.117s-6.983-29.474-7.677-39.733c-1.204-17.824-.215-28.015 2.292-45.703 1.567-11.055 3.197-18.659 6.345-26.824 1.889-4.899 3.842-10.511 8.005-15.76 3.986 6.97 14.341 13.913 22.19 15.605 7.849 1.692 23.874-1.645 30.863-5.597 5.576-3.153 9.912-8.049 14.639-12.373 9.565-8.75 15.034-12.6 24.743-20.195 2.857-2.235 7.983-5.828 9.738-9.003 1.854-3.354-.597-6.17-3.388-8.487-7.399-6.14-33.063-12.204-53.686-8.149-18.218 3.583-32.133 10.826-44.746 26.894C69.974 54.986 68.866 63.82 62.409 85.368zm34.178 91.243c-1.081 3.157-.147 4.233.995 5.654.672.836 1.52 1.529 2.452 2.101 4.234 2.6 11.639 3.148 16.679 3.238 5.04.091 10.058-.991 14.694-2.841 1.126-.449 2.298-.999 2.915-1.994.594-.958 1.057-3.688.721-4.755-.716-2.272-1.268-3.625-3.704-4.196-2.428-.57-4.956.074-7.411.508-4.949.876-10.136 2.029-15.099 1.186-1.883-.32-5.271-1.048-7.072-1.627-2.391-.767-4.608 1.086-5.17 2.726zm-1.875-37.867c-4.164.005-8.558 5.863-11.408 8.898-1.764 1.878-1.441 5.371.815 7.491 3.766 3.537 7.628 1.598 10.523-2.31 1.305-1.761 2.155-3.073 3.456-4.837 1.73-2.345 2.469-6.103.719-7.62-1.416-1.228-2.229-1.624-4.105-1.622zm46.137 16.762c2.216-.069 5.561-1.933 5.743-5.925.182-3.992-4.276-6.235-6.375-7.976-1.416-1.174-5.114-3.462-6.951-3.368-2.534.129-4.285 2.932-4.096 5.462.189 2.53 1.785 4.73 3.53 6.572 2.252 2.378 4.876 5.338 8.149 5.235zm-2.484-63.489c-2.525 1.877-5.658 6.326-6.697 9.295-.346.987-.64 2.018-.577 3.062s1.24 2.902 2.137 3.44c.616.369 1.361.456 2.079.439a8.151 8.151 0 0 0 3.906-1.112c1.045-.613 1.938-1.452 2.821-2.282l4.542-4.274c.896-.843 1.828-1.745 2.169-2.927.343-1.19.019-2.481-.522-3.595-1.637-3.363-6.857-4.277-9.858-2.046zm-38.858 9.35l-2.458-3.81c-1.499-2.322-3.19-4.8-5.809-5.683-1.991-.671-4.318-.233-5.928 1.116-1.611 1.349-2.449 3.563-2.137 5.641.24 1.598 1.102 3.045 2.148 4.276 3.52 4.143 11.719 9.438 14.719 4.904 1.728-2.61.928-4.176-.535-6.444zm-1.854 19.28a88.548 88.548 0 0 1-9.848-1.571c-2.618-.571-5.725-1.139-7.669.705-1.377 1.305-1.504 3.399-1.455 5.296.06 2.346.757 4.521 2.694 5.055 1.419.392 3.297.005 4.943-.163 3.426-.348 6.887.378 10.292.377 3.198-.001 6.343-.769 9.478.029 1.365.347 2.902 1.892 3.547 3.144.412.8.377 1.747.333 2.646l-.314 6.381c-.108 2.184-.216 4.372-.532 6.536-.515 3.518-.839 9.101-.727 12.655.041 1.308.978 2.004 2.159 2.551 1.161.538 5.366.408 6.937-.518 1.269-.748 1.166-2.82 1.197-4.027.056-2.149-.432-5.912-.27-8.808.272-4.873.301-9.145 1.339-12.937.394-1.439.718-3.89 1.585-5.103 1.202-1.682 3.15-1.962 5.116-2.603 1.858-.606 14.154-1.019 16.903-.744 2.749.275 5.203.327 7.708-.837 1.365-.634 1.85-2.737 1.773-4.832-.095-2.563-.627-2.929-2.693-4.448-2.159-1.587-5.129-1.138-7.787-.805-4.393.55-11.772 2.52-16.173 2.03-1.386-.154-1.738-.397-3.027-.93-.796-.329-1.573-.81-2.004-1.556-.434-.751-.459-2.707-.474-3.575-.051-3.135-.274-11.767.115-14.878.26-2.084.718-4.151.768-6.251.05-2.1-.35-4.295-1.628-5.962-.442-.577-1.009-1.095-1.708-1.294-.502-.143-1.036-.113-1.557-.077-1.731.119-3.616.353-4.829 1.593-.976.998-1.309 2.447-1.52 3.827-.633 4.137-.511 9.391-.421 13.575l.18 8.317c.044 2.034-.537 4.816-2.277 6.121-2.06 1.538-7.596 1.342-10.154 1.081zm100.932 15.91c-1.879 1.587-1.708 5.064.101 5.935 1.758.846 4.69.959 5.892 1 1.625.056 5.477.466 9.037-2.766 1.762-1.6 3.385-4.8 4.327-6.986.716-1.66 1.23-9.55.944-11.335-.635-3.962-2.353-5.113-6.269-5.102-3.463.01-6.316-.721-9.248 1.122-.85.534-2.252 1.206-2.361 3.469s.521 2.601 1.224 3.036c.703.434 1.515.653 2.263 1.004 1.914.899 3.613 2.415 3.286 4.987-.326 2.572-3.305 4.592-5.417 4.491-1.667-.082-2.904.405-3.779 1.145z"/></symbol></svg>